<?xml version="1.0" standalone="no"?>
<!DOCTYPE svg PUBLIC "-//W3C//DTD SVG 20010904//EN"
 "http://www.w3.org/TR/2001/REC-SVG-20010904/DTD/svg10.dtd">
<svg version="1.0" xmlns="http://www.w3.org/2000/svg"
 width="500.000000pt" height="500.000000pt" viewBox="0 0 500.000000 500.000000"
 preserveAspectRatio="xMidYMid meet">

<g transform="translate(0.000000,500.000000) scale(0.100000,-0.100000)"
fill="#000000" stroke="none">
<path d="M683 3873 c-24 -5 -30 -18 -13 -28 6 -3 10 -30 10 -60 0 -53 1 -55
80 -145 101 -114 157 -190 180 -244 27 -60 92 -303 135 -501 39 -182 78 -285
125 -330 36 -34 85 -44 223 -45 59 0 107 -3 107 -8 0 -4 -34 -41 -76 -82 -42
-41 -91 -97 -109 -125 -18 -27 -47 -67 -63 -88 -20 -25 -33 -55 -37 -85 -4
-26 -12 -61 -18 -79 -9 -28 -7 -37 30 -96 38 -60 40 -68 32 -108 -4 -24 -8
-63 -9 -86 0 -38 4 -45 63 -94 34 -30 76 -69 93 -89 l32 -35 -18 -46 c-10 -25
-61 -118 -114 -208 -53 -90 -96 -174 -96 -187 0 -31 41 -59 67 -45 11 5 27 35
37 68 37 118 131 263 171 263 50 0 265 -90 265 -111 0 -7 -16 -51 -36 -96 -37
-87 -38 -115 -3 -134 38 -20 56 -2 91 89 l34 87 41 -1 c32 0 44 4 52 20 40 80
96 231 119 323 l29 108 58 30 59 30 28 82 c27 79 64 280 54 291 -3 3 -8 -3
-11 -12 -3 -9 -7 -23 -10 -32 -3 -9 -8 -15 -11 -12 -9 9 120 335 152 383 41
62 45 -25 9 -169 -39 -152 -30 -353 21 -458 43 -91 104 -36 134 120 19 94 8
250 -24 345 -26 78 -34 171 -16 182 23 14 160 -324 146 -361 -3 -9 0 -39 8
-67 8 -29 26 -104 41 -167 14 -63 30 -121 34 -129 5 -7 33 -21 62 -30 l54 -18
40 -140 c40 -138 84 -255 113 -301 11 -17 20 -21 36 -16 44 14 49 9 91 -86 26
-61 48 -96 59 -98 23 -5 66 24 66 44 0 9 -18 57 -40 106 -22 49 -38 93 -35 97
7 12 163 78 218 93 44 11 48 11 73 -12 44 -41 96 -130 129 -220 32 -88 42 -98
91 -86 35 9 31 49 -12 121 -53 88 -184 342 -184 357 0 16 99 114 148 147 30
21 32 26 32 79 0 31 -5 75 -10 97 -8 35 -6 43 15 65 27 29 55 89 55 121 0 16
-3 19 -13 11 -10 -8 -12 -3 -9 26 2 20 -3 55 -10 77 -19 54 -128 194 -199 256
-33 28 -68 63 -78 78 l-19 26 142 0 c164 0 185 7 232 76 39 59 73 165 128 409
79 347 87 367 261 610 72 100 83 122 87 165 2 28 6 56 9 64 6 23 -61 30 -191
20 -124 -9 -304 -51 -489 -113 -58 -20 -107 -34 -109 -31 -3 2 1 11 8 20 7 9
11 17 8 20 -8 8 -133 -56 -210 -108 -68 -46 -76 -55 -71 -78 4 -20 -2 -31 -30
-52 -41 -31 -47 -33 -47 -12 0 33 -31 9 -175 -137 -177 -180 -302 -333 -368
-452 l-48 -86 -24 16 c-32 21 -31 31 0 46 33 15 29 34 -16 70 l-37 30 -40 -21
c-65 -33 -78 -74 -27 -83 26 -4 25 -27 -2 -45 -20 -14 -23 -11 -63 57 -72 124
-247 336 -420 511 -81 82 -150 129 -150 104 0 -19 -3 -19 -50 5 -35 18 -39 23
-34 49 6 27 1 32 -78 84 -88 58 -128 80 -168 92 -24 7 -24 7 -9 -11 35 -41 24
-40 -104 7 -127 48 -323 101 -417 113 -61 8 -240 14 -267 9z m2772 -444 c11
-16 -4 -59 -20 -59 -10 0 -15 10 -15 28 0 39 20 56 35 31z m-1889 -39 c0 -22
-5 -39 -11 -37 -12 4 -19 43 -11 63 11 28 23 13 22 -26z m1818 -83 c30 -32 32
-44 12 -73 -8 -11 -14 -31 -13 -44 0 -14 -3 -33 -8 -44 -7 -17 -6 -17 15 -6
31 17 198 6 263 -16 41 -14 46 -18 37 -35 -10 -18 -24 -19 -183 -19 l-173 0
-29 -30 c-16 -16 -27 -31 -24 -33 2 -2 63 -18 134 -36 166 -40 181 -47 196
-82 17 -42 -5 -109 -35 -109 -16 -1 -28 -16 -49 -63 -25 -54 -26 -63 -13 -73
9 -6 16 -15 16 -19 0 -20 -281 5 -495 45 -120 23 -225 45 -232 49 -9 4 14 22
64 51 43 24 102 59 132 78 l54 34 -122 80 c-141 94 -140 76 -6 187 122 102
204 157 306 206 l94 44 16 -32 c10 -18 29 -45 43 -60z m-1612 45 c96 -39 420
-279 430 -319 2 -7 -50 -46 -115 -87 -137 -86 -140 -67 26 -158 55 -30 98 -59
97 -64 -2 -10 -360 -78 -497 -94 -117 -13 -243 -13 -243 0 0 6 7 10 15 10 22
0 19 21 -10 73 -28 49 -27 51 24 62 22 5 29 10 21 15 -7 4 -21 5 -31 3 -28 -8
-67 22 -84 64 -15 34 -14 39 1 50 20 15 258 93 284 93 28 0 32 15 9 36 -11 10
-18 23 -15 30 3 7 -12 36 -33 66 -21 29 -55 79 -76 112 l-37 58 30 -7 c26 -5
31 -3 37 17 4 13 18 35 32 50 24 25 27 26 67 13 22 -7 53 -17 68 -23z m-270
-42 c14 -11 28 -29 31 -41 6 -22 5 -22 -124 -17 -121 5 -165 16 -145 35 8 8
158 41 192 42 12 1 33 -8 46 -19z m2201 -7 c29 -12 37 -20 35 -36 -3 -19 -11
-20 -141 -21 -140 -1 -150 2 -124 37 32 44 145 54 230 20z m-2059 -194 c14
-17 26 -35 26 -40 0 -12 -310 -1 -323 11 -4 4 -5 19 -1 34 l6 26 133 0 133 0
26 -31z m1432 -690 c4 -7 20 -8 41 -4 28 5 34 3 31 -11 -2 -9 6 -21 17 -28 56
-31 85 -60 109 -108 14 -28 26 -60 26 -69 0 -16 -63 -49 -94 -49 -8 0 -49 48
-91 108 -43 59 -89 122 -103 140 l-24 32 40 0 c23 0 44 -5 48 -11z m-1133 -86
c4 -2 7 -20 7 -39 0 -67 -49 -127 -114 -138 -30 -6 -49 -2 -92 19 -50 24 -53
28 -43 48 28 54 80 105 116 115 34 9 106 7 126 -5z"/>
<path d="M1745 2859 c-27 -10 -85 -28 -128 -40 -42 -12 -76 -24 -73 -26 5 -6
259 67 271 78 14 14 -14 9 -70 -12z"/>
<path d="M2190 3392 c0 -18 11 -38 30 -57 l30 -29 0 26 c0 44 -20 88 -41 88
-14 0 -19 -7 -19 -28z"/>
<path d="M2764 3384 c-8 -20 -14 -48 -12 -62 3 -26 4 -26 36 18 37 51 42 80
11 80 -14 0 -25 -11 -35 -36z"/>
</g>
</svg>
